Coordinates
nRows=9
nColumns=38

# SIMM Motion File Header:
name Coordinates
datacolumns 38
datarows 9
otherdata 1
range 1.38600000000000010000 1.39400000000000010000

Units are S.I. units (second, meters, Newtons, ...)
Angles are in degrees.

endheader
time	pelvis_tilt	pelvis_list	pelvis_rotation	pelvis_tx	pelvis_ty	pelvis_tz	hip_flexion_r	hip_adduction_r	hip_rotation_r	knee_angle_r	ankle_angle_r	subtalar_angle_r	mtp_angle_r	hip_flexion_l	hip_adduction_l	hip_rotation_l	knee_angle_l	ankle_angle_l	subtalar_angle_l	mtp_angle_l	lumbar_extension	lumbar_bending	lumbar_rotation	arm_flex_r	arm_add_r	arm_rot_r	elbow_flex_r	pro_sup_r	wrist_flex_r	wrist_dev_r	arm_flex_l	arm_add_l	arm_rot_l	elbow_flex_l	pro_sup_l	wrist_flex_l	wrist_dev_l
      1.38600000000000010000	     -6.82069374761979400000	      0.03615145105518152700	      4.33332586457422230000	      0.90606464211794091000	      1.00441986028681440000	     -0.33868951171303974000	     53.52606147084895100000	      5.23992856966444000000	      1.07881466992306300000	   -107.73103333587594000000	      4.14555106886041090000	     -0.00000000000006364269	     -0.00000000000007876189	      2.47813684817717710000	      8.22908481289147000000	     11.69123106885713700000	    -32.19892711330095400000	     18.94652830436407200000	     -0.00000000000003289920	     -0.00000000000007492676	     -2.39109751896184400000	     -0.93963471515229302000	     -9.69356229402255030000	    -37.12011290232131700000	    -16.14902571899909500000	    -10.35681646367643400000	    108.95022000221027000000	     94.26765661877685400000	     -0.00000000000001937141	      0.00000000000000611106	    -16.84408661666535800000	    -13.06588702009648800000	     -6.44868405523527240000	    123.40977163948929000000	     89.35760917609606200000	      0.00000000000001041117	     -0.00000000000002245056
      1.38700000000000000000	     -6.77963295903106820000	     -0.11751058303483254000	      4.19573763861436430000	      0.90646101245735311000	      1.00516232095523290000	     -0.33846426037557781000	     53.62846962070832300000	      5.48835196060809500000	      1.14616363231445240000	   -107.22042948174443000000	      4.19468817531760600000	     -0.00000000000006373928	     -0.00000000000007904887	      1.92652398173514090000	      7.98343809278303420000	     11.61110191773697100000	    -31.77900045877220900000	     18.41305060487911400000	     -0.00000000000003257067	     -0.00000000000007497640	     -2.36106125340147740000	     -0.75681209949380035000	     -9.70386117106916050000	    -37.25221407284978200000	    -16.15709219398116800000	    -10.33605120183538500000	    109.14683066442718000000	     94.20364038600456500000	     -0.00000000000001942202	      0.00000000000000612218	    -16.74120898579177200000	    -12.96288975155808200000	     -6.35399453369248860000	    123.71697297938917000000	     89.47782287162961300000	      0.00000000000001050630	     -0.00000000000002256220
      1.38800000000000010000	     -6.74089038236580770000	     -0.27152219728434046000	      4.05647964670523910000	      0.90686555635932453000	      1.00590906937361900000	     -0.33823571268409786000	     53.72717796711847900000	      5.73782279464622120000	      1.21410612626400870000	   -106.70322769476768000000	      4.24338646328614290000	     -0.00000000000006382869	     -0.00000000000007933373	      1.37625465051539320000	      7.73813024874043800000	     11.52298862915786200000	    -31.35341902484839200000	     17.85823025435334800000	     -0.00000000000003220285	     -0.00000000000007508931	     -2.32818288698780410000	     -0.57364006866290085000	     -9.71127822974423260000	    -37.38642810718276600000	    -16.16427131606002400000	    -10.31625751250771500000	    109.34519474935945000000	     94.14492896015666200000	     -0.00000000000001947243	      0.00000000000000613181	    -16.64134485728260400000	    -12.85881664837937800000	     -6.25774989417212520000	    124.02408870619085000000	     89.59824608307612000000	      0.00000000000001060127	     -0.00000000000002267142
      1.38900000000000000000	     -6.70465773542557920000	     -0.42585302376967121000	      3.91565932094685110000	      0.90727787878392741000	      1.00665942315829190000	     -0.33800403576877297000	     53.82240978144417200000	      5.98819041336945010000	      1.28265195212049530000	   -106.17952140251217000000	      4.29162424049621550000	     -0.00000000000006390990	     -0.00000000000007962054	      0.82775425093633059000	      7.49330275646153780000	     11.42678590038803900000	    -30.92247937014490200000	     17.28231370051920400000	     -0.00000000000003186482	     -0.00000000000007521619	     -2.29229549677669690000	     -0.39014469942165564000	     -9.71592037644605180000	    -37.52275095487009800000	    -16.17056103379206900000	    -10.29753805651301200000	    109.54516635146292000000	     94.09147400909986900000	     -0.00000000000001952291	      0.00000000000000613966	    -16.54448656310675900000	    -12.75374361922758800000	     -6.15984984477714370000	    124.33100496553642000000	     89.71889019908017800000	      0.00000000000001069626	     -0.00000000000002280786
      1.39000000000000010000	     -6.67111520738147500000	     -0.58046274753046134000	      3.77338823509914210000	      0.90769757286520547000	      1.00741271935089330000	     -0.33776941147803641000	     53.91437537107638900000	      6.23928852862223860000	      1.35180904888340160000	   -105.64940221548601000000	      4.33937904862089410000	     -0.00000000000006398789	     -0.00000000000007990563	      0.28144525035375378000	      7.24910431088910650000	     11.32239864409366900000	    -30.48650009387289100000	     16.68559237412201700000	     -0.00000000000003153699	     -0.00000000000007530330	     -2.25324525833468580000	     -0.20635984710910193000	     -9.71790250640249730000	    -37.66117168410757900000	    -16.17596240324281000000	    -10.27998709584467100000	    109.74660366726489000000	     94.04320045747287800000	     -0.00000000000001957305	      0.00000000000000614815	    -16.45062195524017000000	    -12.64774717097621000000	     -6.06019890500702730000	    124.63760960946915000000	     89.83976882868042000000	      0.00000000000001079214	     -0.00000000000002294914
      1.39100000000000000000	     -6.64043043750526340000	     -0.73530034700657987000	      3.62978219087387450000	      0.90812421941905008000	      1.00816831671268630000	     -0.33753203644760432000	     54.00327104925413800000	      6.49093465751199790000	      1.42158360229883880000	   -105.11296007765485000000	      4.38662763086542550000	     -0.00000000000006407414	     -0.00000000000008019097	     -0.26225380239462853000	      7.00569123869504650000	     11.20974301904040100000	    -30.04582225577957600000	     16.06840373521489700000	     -0.00000000000003119483	     -0.00000000000007542486	     -2.21089269268389450000	     -0.02232818756296928500	     -9.71734757760414420000	    -37.80167180615202900000	    -16.18047932536512300000	    -10.26369002080138100000	    109.94936894559960000000	     94.00000794106301800000	     -0.00000000000001962322	      0.00000000000000615806	    -16.35973416962602700000	    -12.54090468636196900000	     -5.95870694336014050000	    124.94379220791967000000	     89.96089692003754100000	      0.00000000000001088793	     -0.00000000000002306977
      1.39200000000000010000	     -6.61275712224687770000	     -0.89030357072546684000	      3.48496123523415280000	      0.90855738678095754000	      1.00892559849252340000	     -0.33729212205295561000	     54.08927770058068800000	      6.74292991848238540000	      1.49198008668589990000	   -104.57028335693866000000	      4.43334595511090160000	     -0.00000000000006415870	     -0.00000000000008047667	     -0.80292986417990453000	      6.76322766028924870000	     11.08874755791605300000	    -29.60080940818683400000	     15.43113210667260800000	     -0.00000000000003083190	     -0.00000000000007553350	     -2.16511430229283560000	      0.16189801111467000000	     -9.71438651244584860000	    -37.94422466442178200000	    -16.18411825301248900000	    -10.24872302142558800000	    110.15332843725940000000	     93.96177246772991500000	     -0.00000000000001967403	      0.00000000000000616950	    -16.27180131000716700000	    -12.43329468799620600000	     -5.85528958610182570000	    125.24944409195999000000	     90.08228987920105600000	      0.00000000000001098459	     -0.00000000000002316812
      1.39300000000000000000	     -6.58823296142380600000	     -1.04539896344668050000	      3.33904952166282420000	      0.90899663133586628000	      1.00968397598586380000	     -0.33704989397105023000	     54.17255863370468900000	      6.99505964303001800000	      1.56300112949076690000	   -104.02145882036289000000	      4.47950933582870460000	     -0.00000000000006423570	     -0.00000000000008076276	     -1.34017816193994530000	      6.52188505202522070000	     10.95935450200144100000	    -29.15184668445593600000	     14.77420847607825600000	     -0.00000000000003050010	     -0.00000000000007559137	     -2.11580488809531220000	      0.34625674207926033000	     -9.70915772379441580000	    -38.08879500108189100000	    -16.18688784211775600000	    -10.23515309110954700000	    110.35835235210733000000	     93.92834854244695500000	     -0.00000000000001972506	      0.00000000000000618251	    -16.18679597735548400000	    -12.32499706517943000000	     -5.74986833791249820000	    125.55445845953408000000	     90.20396269731861600000	      0.00000000000001108169	     -0.00000000000002327255
      1.39400000000000010000	     -6.56697815713548930000	     -1.20050207289412360000	      3.19217516460417140000	      0.90944149817550846000	      1.01044289142454310000	     -0.33680559176852126000	     54.25325811132399400000	      7.24709417750041140000	      1.63464734189987060000	   -103.46657165211010000000	      4.52509247072027510000	     -0.00000000000006430840	     -0.00000000000008105059	     -1.87360442842728570000	      6.28184172484789730000	     10.82152126375548700000	    -28.69933985547182000000	     14.09811039872518100000	     -0.00000000000003014360	     -0.00000000000007562203	     -2.06287921141877370000	      0.53067625212738678000	     -9.70180654707745840000	    -38.23533875815005000000	    -16.18879857615517200000	    -10.22303818521816700000	    110.56431479245484000000	     93.89957152279100700000	     -0.00000000000001977616	      0.00000000000000619506	    -16.10468490570493600000	    -12.21609326508502500000	     -5.64237058471106590000	    125.85873051292280000000	     90.32592911216019600000	      0.00000000000001117792	     -0.00000000000002337003
